# xmcd CD database file
#
# Track frame offsets:
#	150
#	21099
#	40689
#	61756
#	84346
#	112268
#	115961
#	142139
#	159916
#	180040
#	191784
#	214081
#	239176
#
# Disc length: 3458 seconds
#
# Revision: 0
# Processed by: cddbd v1.5.1PL0 Copyright (c) Steve Scherf et al.
# Submitted via: CDex 1.51
#
DISCID=b10d800d
DTITLE=Saya - Timeless
DYEAR=2005
DGENRE=Jazz
TTITLE0=Air
TTITLE1=Flower Walz
TTITLE2=Piano Sonata Op.8 No.2
TTITLE3=Gymnopedies No.1
TTITLE4=Clair de Lune
TTITLE5=Via Spring
TTITLE6=Chopin In Caribbean
TTITLE7=Butterfly
TTITLE8=Simple Poem
TTITLE9=Prelude
TTITLE10=Etude Op.10 No.3
TTITLE11=Pavane
TTITLE12=Timeless
EXTD=YEAR: 2005
EXTT0=
EXTT1=
EXTT2=
EXTT3=
EXTT4=
EXTT5=
EXTT6=
EXTT7=
EXTT8=
EXTT9=
EXTT10=
EXTT11=
EXTT12=
PLAYORDER=
